<?xml version="1.0" standalone="no"?>
<!DOCTYPE svg PUBLIC "-//W3C//DTD SVG 20010904//EN"
 "http://www.w3.org/TR/2001/REC-SVG-20010904/DTD/svg10.dtd">
<svg version="1.0" xmlns="http://www.w3.org/2000/svg"
 width="512.000000pt" height="512.000000pt" viewBox="0 0 512.000000 512.000000"
 preserveAspectRatio="xMidYMid meet">

<g transform="translate(0.000000,512.000000) scale(0.100000,-0.100000)"
fill="#000000" stroke="none">
<path d="M3580 5111 c0 -10 -112 -71 -131 -71 -8 0 -27 -7 -42 -15 -23 -12
-71 -14 -250 -13 -172 1 -238 -2 -293 -14 -82 -19 -242 -93 -297 -139 -64 -53
-132 -160 -153 -239 -13 -52 -22 -69 -32 -65 -31 12 -179 6 -221 -9 -48 -16
-61 -14 -61 10 0 24 -40 114 -76 169 -38 60 -77 103 -121 134 l-32 22 -40 -21
c-22 -11 -49 -29 -60 -41 l-19 -21 -48 36 c-61 47 -116 64 -148 46 -25 -13
-65 -77 -103 -165 -16 -38 -28 -51 -50 -57 -69 -18 -173 -226 -173 -348 0 -68
-7 -76 -105 -125 -84 -41 -100 -46 -151 -43 -75 4 -83 -8 -65 -94 31 -150 78
-238 146 -276 19 -10 19 -12 -11 -44 -60 -63 -126 -187 -159 -298 -16 -54 -92
-179 -110 -180 -18 -1 -95 -81 -95 -99 0 -23 46 -66 92 -85 21 -9 62 -16 93
-16 30 0 55 -2 55 -5 0 -2 -11 -28 -25 -57 -63 -136 -124 -339 -161 -533 -9
-49 -20 -96 -24 -103 -5 -10 -46 -14 -176 -15 l-169 -2 -4 -30 c-2 -16 2 -73
8 -125 6 -52 15 -180 21 -285 11 -175 20 -275 51 -523 7 -51 10 -95 7 -97 -2
-3 -65 -7 -139 -10 -121 -5 -199 -18 -199 -32 0 -2 8 -12 19 -21 13 -13 23
-48 35 -137 10 -66 21 -129 26 -140 5 -11 11 -37 13 -57 5 -32 3 -37 -15 -40
-37 -5 -61 -64 -55 -132 6 -68 16 -81 60 -81 l32 0 12 -105 c6 -58 16 -133 22
-167 7 -38 8 -70 2 -85 -12 -33 5 -53 53 -62 44 -8 963 -9 976 -1 5 3 19 -8
31 -24 40 -54 79 -66 329 -96 248 -30 282 -36 322 -61 44 -28 131 -33 176 -10
17 8 84 16 182 20 85 4 261 15 390 25 228 17 310 18 310 1 0 -20 34 -40 69
-40 49 0 149 35 178 62 20 19 23 19 29 4 8 -20 55 -46 84 -46 27 0 85 26 128
58 23 17 32 32 32 52 0 25 3 28 34 28 40 0 72 22 110 74 24 34 32 38 69 38 55
0 111 28 115 57 2 13 -2 23 -8 23 -6 0 -8 5 -5 10 4 6 10 8 15 5 22 -14 205
-12 245 1 241 85 355 167 425 307 33 66 37 94 17 122 -11 14 -21 16 -43 11
-80 -19 -100 -18 -193 10 -10 3 -4 13 20 33 19 16 47 52 63 80 25 48 27 58 22
134 -7 125 -16 166 -37 177 -14 8 -23 6 -37 -7 -34 -33 -172 -113 -194 -113
-8 0 -25 11 -37 24 -23 24 -23 25 -5 58 11 18 62 78 115 134 53 55 103 113
112 130 23 45 53 66 96 70 52 4 140 47 179 87 76 78 158 197 172 249 12 42 15
188 5 240 -6 33 -3 38 50 89 41 38 68 77 98 137 36 74 41 93 41 155 l1 72 -70
6 c-167 15 -282 120 -347 314 -10 33 -23 69 -28 80 -27 67 -52 140 -70 210
-11 44 -29 107 -40 140 -11 33 -29 92 -41 130 -32 106 -150 338 -226 445 -168
234 -397 424 -623 515 -25 10 -64 27 -87 37 -23 10 -46 18 -52 18 -17 0 -23
20 -11 35 7 8 20 15 28 15 27 0 90 80 128 160 20 41 40 82 44 91 5 9 16 54 25
100 17 89 13 152 -12 207 -14 30 -33 43 -33 23z m-15 -161 c-8 -41 -29 -119
-47 -173 -37 -111 -77 -168 -137 -193 -82 -35 -153 -54 -198 -54 -26 0 -64 -4
-83 -9 -19 -5 -72 -12 -117 -16 -66 -5 -83 -4 -83 7 0 26 162 168 192 168 9 1
9 3 -2 9 -21 12 -169 -4 -232 -24 -83 -27 -178 -84 -235 -141 -77 -77 -93
-108 -93 -182 0 -73 -17 -81 -37 -18 -20 58 -28 245 -13 292 65 201 389 352
676 314 160 -21 288 4 366 71 24 20 46 34 50 31 4 -4 0 -41 -7 -82z m-1909
-164 c78 -63 135 -146 136 -198 2 -123 -6 -148 -41 -127 -11 8 -21 24 -21 36
0 38 -49 128 -96 176 -25 26 -49 47 -54 47 -13 0 -50 -51 -50 -69 -1 -26 -26
-52 -44 -45 -9 3 -16 13 -16 21 0 16 63 155 86 190 18 28 33 23 100 -31z m283
-44 c71 -89 101 -159 101 -241 0 -53 -31 -141 -50 -141 -4 0 1 19 12 43 23 47
36 127 21 127 -6 0 -13 -15 -16 -33 -6 -41 -67 -177 -79 -177 -20 0 -19 35 3
78 37 73 33 137 -15 206 -39 57 -70 76 -89 57 -18 -18 -25 -13 -37 24 -11 34
-10 37 30 85 23 28 45 50 48 50 4 0 36 -36 71 -78z m-300 -188 l-22 -36 -24
24 -24 25 21 41 22 41 25 -29 25 -30 -23 -36z m-151 9 c70 -27 111 -52 112
-66 0 -18 -42 -67 -58 -67 -8 0 -25 8 -36 18 -12 10 -38 29 -58 41 -36 22 -37
22 -56 3 -29 -29 -62 -142 -62 -210 0 -53 3 -62 25 -76 14 -9 39 -19 55 -23
25 -5 29 -9 24 -27 -3 -11 -10 -25 -14 -30 -12 -12 -122 26 -132 47 -4 9 -12
25 -16 34 -24 50 97 383 139 383 6 0 41 -12 77 -27z m212 -63 c5 -63 5 -64 39
-71 122 -25 221 -211 222 -418 0 -53 -7 -125 -14 -161 -42 -185 -118 -441
-154 -513 -13 -26 -26 -67 -30 -92 -3 -25 -7 -45 -10 -45 -12 0 -91 57 -115
84 -49 53 -148 207 -191 296 -39 84 -40 87 -40 200 -1 138 43 381 74 415 5 5
9 16 9 25 0 15 16 51 82 185 32 64 102 165 113 161 6 -1 12 -31 15 -66z m190
50 c13 -24 3 -110 -13 -110 -16 0 -47 31 -47 47 0 23 28 83 39 83 6 0 15 -9
21 -20z m527 -96 c7 -10 13 -30 13 -44 0 -34 56 -146 77 -154 8 -4 21 -2 27 2
57 45 348 35 496 -16 193 -67 333 -175 527 -405 68 -81 232 -357 296 -497 18
-41 39 -86 46 -100 l11 -25 -4 25 c-28 153 -192 448 -368 658 -124 149 -214
227 -358 314 -131 79 -237 114 -384 126 -89 8 -107 24 -49 42 21 6 47 15 58
20 150 68 341 91 455 55 260 -82 376 -134 526 -236 159 -110 322 -310 426
-524 74 -154 183 -437 234 -610 80 -273 139 -394 227 -466 81 -66 96 -73 190
-77 54 -3 87 -9 87 -15 0 -20 -33 -101 -52 -130 -11 -15 -27 -27 -36 -27 -10
0 -27 -6 -38 -14 -26 -19 -132 -46 -177 -46 -56 0 -160 37 -225 80 -55 37
-113 91 -206 195 -33 36 -36 38 -32 15 7 -38 18 -166 21 -250 4 -90 28 -169
95 -302 61 -121 85 -157 151 -225 46 -47 138 -103 170 -103 7 0 5 -8 -6 -20
-78 -86 -250 -96 -359 -20 -54 37 -77 63 -120 134 -35 59 -36 62 -36 168 0
132 -14 269 -42 403 -11 55 -24 120 -29 145 -17 87 -83 276 -87 249 -3 -26 0
-43 38 -184 51 -192 71 -359 77 -645 4 -214 3 -243 -16 -328 -30 -129 -74
-241 -125 -309 -97 -133 -246 -232 -399 -267 -88 -20 -297 -33 -297 -18 0 5
21 20 46 33 26 12 70 45 98 74 28 28 67 59 87 69 19 9 72 46 116 81 144 115
200 217 237 430 19 106 19 105 7 105 -5 0 -15 -25 -21 -55 -17 -83 -73 -217
-124 -299 -71 -114 -131 -175 -206 -210 -57 -26 -77 -30 -155 -30 -60 -1 -98
4 -115 13 l-24 14 24 15 c43 27 327 329 318 338 -3 2 -18 6 -34 8 -16 2 -47
21 -69 43 -23 21 -66 51 -97 66 l-57 29 6 49 c3 27 2 49 -3 49 -5 0 -36 -7
-70 -15 -47 -11 -89 -12 -187 -6 -142 9 -199 2 -283 -35 -41 -18 -54 -28 -46
-36 8 -8 -1 -27 -30 -69 -23 -32 -40 -61 -37 -63 2 -3 22 -1 43 4 33 7 37 6
31 -8 -35 -85 -31 -171 11 -257 50 -104 135 -138 269 -108 38 9 59 21 91 56
50 52 66 102 57 177 -11 95 -42 147 -108 179 -52 26 -24 26 61 0 94 -29 132
-47 182 -87 64 -51 94 -101 86 -141 -8 -39 -135 -171 -165 -171 -28 0 -23 -25
9 -46 54 -37 98 -53 146 -54 l49 0 -23 -25 c-14 -14 -59 -47 -102 -72 -43 -25
-78 -49 -78 -53 0 -4 11 -13 25 -20 14 -7 25 -17 25 -22 0 -8 -128 -72 -222
-111 -42 -18 -46 -15 -50 37 -2 42 -27 65 -117 111 -47 23 -62 26 -110 21 -31
-3 -132 -9 -226 -12 -171 -5 -449 -34 -537 -56 -43 -11 -55 -9 -140 19 -83 28
-164 49 -265 68 -21 4 -44 20 -63 43 -29 36 -70 127 -70 158 0 8 19 23 43 33
23 10 53 28 66 40 l23 20 -51 57 c-29 31 -61 73 -72 93 -11 20 -29 51 -40 68
-34 54 -15 60 24 8 l37 -48 0 30 c0 55 27 100 75 128 45 27 145 59 145 47 0
-4 -16 -20 -35 -35 -35 -28 -35 -28 -35 -108 0 -69 4 -89 30 -141 36 -73 116
-154 156 -159 90 -12 159 29 173 104 10 57 -1 132 -28 184 -20 41 -83 103
-103 103 -6 0 -9 3 -6 6 4 3 31 -7 62 -22 31 -15 59 -25 62 -22 3 4 -1 19 -10
36 -8 16 -13 32 -10 35 10 10 -83 80 -146 110 -53 26 -80 32 -154 35 -64 3
-99 10 -120 23 -56 34 -87 20 -66 -31 11 -27 9 -31 -41 -79 -37 -36 -58 -49
-71 -45 -22 7 -22 -3 -2 -74 28 -96 78 -179 151 -255 43 -45 45 -48 27 -61
-26 -19 -143 -29 -180 -16 -48 18 -90 67 -119 138 -15 37 -37 90 -50 117 -13
28 -25 66 -28 85 -12 85 -20 120 -26 120 -16 0 -41 -152 -44 -255 -2 -99 1
-118 27 -190 15 -44 37 -97 48 -118 11 -22 17 -42 13 -45 -10 -10 -53 49 -90
125 -56 116 -76 200 -82 360 -6 144 -22 188 -24 65 l-1 -67 -18 56 c-19 59
-39 205 -34 254 1 17 3 47 3 68 1 31 4 37 24 37 32 1 126 41 208 90 39 23 72
40 74 38 8 -8 -116 -354 -131 -365 -14 -10 -14 -12 5 -22 28 -15 118 -13 166
4 55 20 55 20 57 -22 l1 -38 4 38 c4 33 18 52 107 140 56 56 126 137 155 181
l53 78 18 -30 c36 -59 141 -118 229 -128 l46 -6 -25 21 c-14 11 -33 18 -42 15
-23 -7 -128 49 -164 88 -24 26 -25 29 -7 19 12 -6 25 -15 28 -21 9 -15 135
-83 142 -76 4 3 4 8 2 9 -2 2 -35 25 -74 52 -38 27 -84 59 -101 71 l-31 23 63
127 c35 70 64 133 64 141 0 7 4 13 9 13 5 0 11 -23 15 -51 8 -61 77 -282 111
-358 14 -29 46 -85 72 -124 54 -81 67 -139 48 -201 -30 -96 -40 -167 -39 -274
1 -62 6 -118 12 -125 6 -6 13 -29 17 -49 4 -21 9 -38 11 -38 13 0 140 97 202
155 45 42 77 65 79 57 7 -18 84 -108 113 -130 59 -45 69 -32 14 20 -31 29 -70
73 -87 97 l-31 45 69 63 c87 79 99 81 90 10 -8 -59 17 -204 41 -247 11 -19 14
-20 10 -5 -7 30 -19 210 -20 285 -1 64 1 68 50 135 57 79 80 93 168 106 33 5
84 12 111 17 l50 7 -70 3 c-38 2 -94 -2 -123 -8 -30 -7 -56 -10 -58 -7 -2 2
11 38 30 79 l35 76 53 6 c159 19 218 29 218 36 0 13 -39 20 -143 27 -65 4 -96
10 -93 17 67 158 88 217 107 296 23 99 39 134 39 87 0 -15 14 -65 31 -110 92
-239 253 -428 438 -511 40 -18 66 -36 75 -54 21 -43 37 -122 31 -152 -3 -16
-1 -31 4 -35 6 -3 12 -5 13 -3 1 2 5 71 8 153 26 544 2 714 -155 1095 -77 189
-131 292 -202 386 -93 124 -193 243 -259 309 -17 16 -52 71 -79 120 -30 55
-51 83 -53 73 -2 -9 10 -72 27 -140 44 -177 90 -418 101 -526 13 -121 -3 -425
-29 -557 -25 -124 -82 -322 -114 -396 l-25 -55 -83 -14 c-79 -12 -158 -35
-186 -53 -19 -12 -16 -29 5 -23 9 2 66 8 126 12 l109 7 -84 -104 c-88 -108
-162 -215 -197 -285 -21 -41 -83 -104 -104 -104 -15 0 -108 -77 -185 -152 -35
-34 -66 -58 -70 -54 -5 4 -7 74 -7 154 1 111 7 171 24 247 12 55 22 114 23
130 1 17 9 41 18 55 28 42 58 164 85 348 21 142 30 497 14 605 -7 48 -15 86
-18 83 -3 -3 -8 -160 -12 -348 -6 -257 -12 -370 -26 -450 -9 -60 -21 -108 -24
-108 -10 0 -43 39 -83 97 -109 157 -213 456 -202 579 8 93 14 317 9 311 -9 -9
-23 -88 -39 -217 -7 -63 -27 -164 -45 -225 -17 -60 -38 -135 -46 -165 -18 -61
-80 -180 -94 -180 -6 0 -10 -9 -10 -19 0 -30 -112 -190 -184 -263 -71 -72
-180 -135 -251 -145 -52 -7 -61 5 -36 49 11 18 29 58 41 88 11 30 25 64 30 75
5 11 21 49 35 84 28 69 97 206 154 311 20 36 46 87 58 114 l23 48 -90 -83
c-220 -203 -483 -399 -537 -399 -37 0 -32 12 29 80 58 66 72 87 143 215 38 68
71 153 90 229 44 173 126 451 139 472 19 29 40 32 31 5 -6 -18 -25 -128 -25
-143 0 -15 42 -7 95 17 100 48 208 191 222 294 l5 38 41 -44 c41 -45 151 -133
165 -133 8 0 62 115 62 132 0 6 7 24 15 41 8 18 30 79 49 137 l34 104 64 12
c34 7 84 21 111 33 26 11 47 18 47 15 0 -6 -27 -43 -127 -172 -40 -51 -73 -97
-73 -101 0 -4 -31 -41 -70 -81 -38 -40 -68 -76 -65 -79 2 -4 29 -20 60 -35
110 -56 303 -46 444 23 170 83 347 333 380 539 5 34 13 66 16 72 3 5 -1 53
-10 107 -11 70 -26 119 -52 171 -31 64 -34 75 -22 88 13 12 22 12 69 -1 30 -9
63 -20 73 -26 33 -19 32 0 -3 36 -61 63 -146 80 -192 39 -14 -14 -21 -13 -58
6 -34 17 -44 19 -51 9 -6 -10 8 -22 47 -43 158 -85 201 -338 97 -576 -38 -87
-76 -148 -146 -236 -95 -120 -158 -159 -301 -189 -96 -19 -153 -19 -235 1 -97
24 -99 28 -33 83 66 55 144 143 228 256 32 44 69 91 82 105 12 14 22 28 22 33
0 4 20 41 45 81 25 41 45 79 45 85 0 11 -57 -23 -172 -100 -32 -22 -61 -39
-65 -39 -3 0 -14 -6 -22 -13 -23 -19 -100 -51 -107 -44 -3 3 0 37 7 76 12 69
14 72 57 97 69 41 201 142 269 207 64 61 128 148 121 166 -4 14 -17 4 -61 -52
-57 -70 -352 -325 -364 -314 -1 2 2 28 7 58 6 30 11 110 13 177 2 67 7 126 12
131 6 6 52 24 103 41 67 22 120 33 193 37 65 4 99 10 96 17 -1 6 -25 22 -52
36 -43 21 -64 25 -140 25 -80 -1 -97 -4 -155 -32 -35 -17 -66 -30 -69 -28 -5
6 18 49 62 117 39 59 37 59 152 87 22 6 78 9 124 7 67 -3 88 -8 98 -22z m-889
-52 c2 -8 -2 -29 -11 -48 -28 -57 -57 -27 -57 59 l0 38 31 -18 c17 -10 34 -24
37 -31z m-58 -149 c-1 -23 -18 -32 -53 -26 -39 6 -49 19 -19 26 29 8 72 7 72
0z m1407 -710 c15 -27 56 -88 90 -138 35 -49 73 -108 84 -130 12 -22 41 -65
63 -95 71 -94 116 -168 161 -263 109 -235 155 -457 155 -742 0 -84 -4 -156 -9
-159 -12 -8 -96 22 -163 58 -89 48 -221 159 -260 218 -43 65 -57 96 -99 217
l-32 95 13 114 c16 140 1 736 -20 787 -38 93 -28 115 17 38z m-1837 -180 c-1
-7 -80 -62 -102 -71 -18 -8 -6 24 19 50 25 26 84 40 83 21z m-16 -58 c-7 -16
-24 -21 -24 -6 0 8 7 13 27 20 1 1 0 -6 -3 -14z m142 -272 c-37 -119 -48 -161
-66 -238 -37 -157 -71 -257 -118 -349 -25 -49 -47 -85 -49 -80 -3 9 13 93 58
314 5 24 23 98 41 165 30 114 34 122 77 163 49 45 66 52 57 25z m-610 -739
c74 -4 136 -10 138 -13 2 -3 -3 -40 -11 -81 -20 -103 -22 -129 -23 -250 -1
-176 20 -320 51 -354 26 -28 8 -35 -98 -39 l-108 -3 116 -2 115 -2 34 -35 c30
-31 40 -36 75 -33 35 3 40 6 43 31 3 26 16 35 26 19 3 -5 10 -40 16 -78 6 -38
20 -97 32 -131 12 -35 20 -65 17 -67 -2 -3 -112 -8 -244 -12 -199 -5 -242 -4
-252 7 -6 8 -14 76 -18 157 -6 117 -5 142 6 142 9 0 10 3 3 8 -11 8 -32 159
-39 292 -3 47 -10 120 -16 162 -6 43 -9 87 -6 98 3 11 1 20 -4 20 -5 0 -9 17
-9 38 -1 20 -5 57 -10 82 -9 50 -5 64 16 56 8 -3 75 -9 150 -12z m2104 -214
c0 -5 -5 -10 -11 -10 -5 0 -7 5 -4 10 3 6 8 10 11 10 2 0 4 -4 4 -10z m83 3
c-7 -2 -19 -2 -25 0 -7 3 -2 5 12 5 14 0 19 -2 13 -5z m-123 -13 c-8 -5 -33
-9 -55 -8 l-40 1 45 7 c25 4 50 8 55 8 6 1 3 -3 -5 -8z m-1875 -115 c9 -54 27
-137 40 -184 29 -99 36 -237 11 -211 -8 8 -27 56 -44 105 -32 98 -50 273 -36
363 9 56 9 55 29 -73z m3864 -137 c1 -29 -12 -35 -38 -19 -13 8 -12 15 4 45
16 30 21 33 27 19 3 -10 7 -30 7 -45z m-470 -57 c29 -44 37 -106 21 -157 -17
-53 -91 -172 -131 -209 -36 -34 -36 -35 4 85 30 86 46 173 55 280 4 60 7 71
16 56 6 -10 22 -35 35 -55z m-3232 -162 c5 -35 3 -39 -16 -39 -19 0 -21 5 -21
62 0 60 1 62 16 40 9 -13 18 -41 21 -63z m766 48 c7 -22 5 -32 -9 -48 -25 -27
-41 -24 -48 12 -12 63 37 94 57 36z m1091 -3 c23 -9 20 -50 -6 -74 -28 -26
-58 -22 -69 8 -7 18 -4 28 16 48 25 25 33 28 59 18z m-1048 -132 c11 -9 25
-29 32 -44 6 -15 23 -35 37 -44 33 -21 71 -7 81 31 8 31 24 28 43 -7 13 -23
13 -30 -3 -67 -28 -61 -47 -74 -97 -66 -51 9 -123 71 -150 130 -23 51 -24 72
-1 78 30 8 37 7 58 -11z m1044 -23 c0 -25 16 -57 43 -86 15 -16 32 -23 59 -23
37 0 40 3 59 46 20 44 50 67 76 57 7 -3 22 -20 34 -39 60 -98 -56 -192 -197
-159 -84 19 -122 65 -139 164 -6 37 -4 42 17 50 36 15 48 13 48 -10z m-1721
-313 c22 -29 59 -70 82 -90 l43 -36 -32 -12 c-44 -17 -47 -39 -22 -137 l21
-82 -28 -36 c-27 -35 -28 -40 -25 -137 2 -63 8 -108 16 -121 7 -11 17 -35 20
-52 8 -36 118 -156 153 -167 20 -7 37 -52 26 -70 -6 -8 -219 -5 -729 10 -142
5 -217 3 -230 -4 -26 -14 -49 0 -50 30 0 13 -1 98 -2 191 -1 114 -5 167 -13
167 -6 0 -9 -7 -5 -15 3 -8 2 -15 -3 -15 -5 0 -11 10 -13 23 -7 38 10 48 157
98 60 21 106 38 100 38 -42 3 -230 -45 -278 -70 -10 -6 -30 -14 -44 -20 l-26
-10 5 71 c6 80 20 104 55 95 21 -5 23 -3 15 12 -5 10 -13 59 -17 108 -4 50
-13 126 -21 170 -8 44 -14 85 -14 90 0 6 36 9 92 7 51 -1 190 2 308 6 118 5
261 10 317 10 l102 2 40 -54z m3331 -30 c0 -40 -47 -66 -117 -65 -50 1 -53 2
-23 8 47 10 97 37 113 61 16 27 27 25 27 -4z m-2692 -152 c174 -41 249 -54
282 -50 25 2 108 12 185 21 552 63 576 64 672 24 40 -17 73 -34 73 -39 0 -4
-120 -10 -267 -13 -270 -6 -485 -27 -638 -62 l-71 -16 -99 32 c-154 48 -310
87 -420 104 -161 26 -157 24 -110 47 54 25 102 19 393 -48z m2125 -24 c20 -44
37 -88 37 -99 0 -44 -38 -102 -135 -208 l-30 -32 -93 87 -94 87 9 59 c7 53 11
60 36 69 16 5 30 7 32 6 1 -2 -1 -26 -5 -52 -6 -43 -4 -52 16 -76 12 -15 39
-36 58 -46 20 -11 36 -23 36 -27 0 -5 8 -8 18 -8 9 0 29 19 43 43 53 84 53 84
29 135 -12 26 -32 60 -43 76 l-20 29 24 18 c13 10 29 18 34 18 6 0 27 -36 48
-79z m-126 -30 c3 -16 10 -30 15 -30 5 0 8 -15 6 -32 -2 -26 -8 -34 -26 -36
-38 -6 -52 14 -47 66 2 26 4 50 5 55 0 4 9 7 20 7 15 0 22 -9 27 -30z m-2417
-1 c0 -6 -4 -7 -10 -4 -5 3 -10 11 -10 16 0 6 5 7 10 4 6 -3 10 -11 10 -16z
m66 -14 c-1 -29 -16 -35 -16 -7 0 16 8 32 16 32 1 0 1 -11 0 -25z m-121 -5 c3
-5 2 -10 -4 -10 -5 0 -13 5 -16 10 -3 6 -2 10 4 10 5 0 13 -4 16 -10z m605
-73 c21 -4 19 -5 -7 -6 -18 0 -33 -6 -33 -12 0 -5 11 -49 24 -97 13 -48 27
-104 30 -124 5 -28 12 -38 25 -38 10 0 25 -7 32 -17 13 -15 11 -16 -14 -9 -28
7 -28 6 -21 -31 9 -50 13 -56 32 -48 9 3 13 3 9 -1 -4 -4 1 -13 11 -21 16 -13
15 -14 -6 -10 -21 5 -23 3 -17 -26 15 -74 26 -107 36 -107 7 0 9 10 5 26 -5
19 -3 25 6 22 7 -3 13 -13 13 -24 0 -10 4 -22 8 -25 5 -3 11 -26 14 -50 3 -24
9 -48 13 -54 17 -22 22 -77 9 -86 -19 -12 -59 -11 -59 1 0 6 -17 10 -38 10
-20 0 -53 5 -72 10 -57 17 -207 41 -330 53 l-115 12 -8 40 c-5 22 -15 54 -22
71 -11 26 -11 32 3 41 15 9 22 47 22 118 l0 30 25 -30 c14 -16 25 -24 25 -17
0 6 7 12 16 12 12 0 14 5 8 18 -11 22 -11 112 -1 133 6 12 2 18 -17 23 -36 9
-90 56 -77 69 12 12 93 -16 111 -39 7 -8 30 -14 51 -14 21 0 62 -9 90 -20 37
-13 57 -16 70 -10 27 15 105 12 118 -4 10 -12 8 -17 -11 -27 -25 -14 -30 -16
-53 -18 -13 -1 -10 -10 13 -43 32 -47 52 -99 52 -133 0 -13 7 -25 15 -29 9 -3
15 0 15 9 0 9 9 15 21 15 17 0 20 5 16 23 -3 12 -20 80 -37 152 -37 149 -70
303 -70 325 0 10 8 6 23 -12 12 -15 33 -29 47 -31z m-445 33 c-3 -5 -11 -10
-16 -10 -6 0 -7 5 -4 10 3 6 11 10 16 10 6 0 7 -4 4 -10z m-47 -18 c2 -7 -3
-12 -12 -12 -9 0 -16 7 -16 16 0 17 22 14 28 -4z m-113 -2 c3 -5 2 -10 -4 -10
-5 0 -13 5 -16 10 -3 6 -2 10 4 10 5 0 13 -4 16 -10z m45 0 c0 -5 -5 -10 -11
-10 -5 0 -7 5 -4 10 3 6 8 10 11 10 2 0 4 -4 4 -10z m157 -16 c12 -3 24 -13
27 -21 6 -14 4 -14 -17 0 -13 8 -34 17 -48 20 -19 3 -20 5 -4 6 11 0 30 -2 42
-5z m-137 -34 c-11 -21 -40 -28 -40 -10 0 6 7 10 15 10 8 0 15 5 15 10 0 6 5
10 10 10 7 0 7 -6 0 -20z m130 -31 c0 -5 -4 -9 -10 -9 -5 0 -10 7 -10 16 0 8
5 12 10 9 6 -3 10 -10 10 -16z m-74 -16 c-10 -10 -19 5 -10 18 6 11 8 11 12 0
2 -7 1 -15 -2 -18z m-76 -39 c43 -13 50 -19 59 -49 5 -19 7 -43 4 -54 -2 -10
0 -22 6 -25 6 -4 11 -36 11 -72 0 -36 5 -74 10 -85 10 -17 7 -19 -35 -19 -35
0 -45 -4 -45 -16 0 -13 8 -15 35 -12 29 3 35 1 35 -14 0 -53 -124 23 -167 103
-22 41 -22 81 -2 137 11 29 28 20 22 -12 -3 -13 0 -33 6 -45 10 -17 9 -21 -4
-21 -8 0 -15 -4 -15 -8 0 -24 132 -54 144 -33 4 6 -10 15 -39 22 -25 6 -47 14
-49 18 -9 14 -9 86 -1 85 6 -1 22 -4 38 -8 36 -9 35 9 -3 29 -37 19 -94 19
-110 0 -19 -23 -30 -8 -30 39 0 51 30 81 63 64 10 -5 41 -16 67 -24z m427 10
c-3 -3 -12 -4 -19 -1 -8 3 -5 6 6 6 11 1 17 -2 13 -5z m33 -30 c0 -8 -5 -12
-10 -9 -6 4 -8 11 -5 16 9 14 15 11 15 -7z m1307 -10 c24 -14 48 -22 54 -18 7
4 10 1 7 -7 -3 -8 -14 -19 -25 -24 -39 -20 -55 -37 -43 -49 13 -13 13 -93 0
-101 -13 -8 -19 9 -23 69 -3 44 -6 51 -30 57 -24 7 -87 -5 -142 -26 -11 -5
-17 -5 -13 0 4 4 3 16 -3 27 -19 35 -3 65 43 81 67 24 125 21 175 -9z m-1257
-14 c0 -5 -4 -10 -10 -10 -5 0 -10 5 -10 10 0 6 5 10 10 10 6 0 10 -4 10 -10z
m1592 -54 c18 -8 50 -22 70 -30 36 -16 83 -64 73 -74 -3 -3 -16 5 -30 18 -24
23 -25 23 -45 5 -17 -16 -25 -17 -40 -7 -24 15 -53 5 -45 -15 3 -11 1 -13 -10
-10 -8 4 -22 -2 -32 -11 -15 -15 -16 -15 -11 -1 5 13 -1 18 -24 23 -24 5 -35
0 -60 -24 -45 -46 -65 -38 -58 23 1 10 25 42 53 73 49 52 54 55 89 50 21 -4
52 -13 70 -20z m-392 -60 c0 -19 2 -41 6 -49 4 -11 -9 -15 -65 -19 -39 -3 -77
-11 -85 -17 -16 -14 -21 -8 -30 36 -9 38 -3 43 84 64 91 23 90 24 90 -15z
m405 -36 c3 -5 1 -10 -4 -10 -6 0 -11 5 -11 10 0 6 2 10 4 10 3 0 8 -4 11 -10z
m99 -32 c8 -12 13 -25 10 -30 -9 -14 -44 12 -44 32 0 26 15 25 34 -2z m-398
-74 c17 -50 17 -58 3 -82 -12 -23 -22 -27 -65 -30 -59 -3 -104 11 -104 34 0
13 7 15 33 10 17 -3 46 -2 62 2 28 8 29 9 10 19 -11 6 -54 14 -96 18 -68 6
-78 10 -88 32 -15 34 -16 33 37 34 26 1 61 5 77 9 17 4 48 8 71 9 l41 1 19
-56z m530 3 c97 -65 102 -81 42 -137 -24 -22 -48 -40 -53 -40 -6 0 -41 34 -78
75 -71 78 -81 107 -38 113 13 2 26 12 28 23 3 10 9 19 13 19 4 0 43 -24 86
-53z m-183 29 c17 -13 17 -15 -2 -46 l-19 -32 34 -48 c19 -26 45 -73 59 -104
35 -78 26 -92 -62 -99 -37 -3 -70 -4 -71 -2 -8 7 -40 143 -43 180 l-4 40 36
-3 36 -3 -2 58 c-2 79 3 85 38 59z m-77 -24 c7 -4 14 -18 15 -32 3 -19 -1 -26
-17 -28 -28 -4 -44 17 -33 46 9 23 17 26 35 14z m-90 -32 c18 0 24 -7 30 -34
9 -50 0 -57 -51 -37 -52 20 -50 18 -59 55 -7 28 -6 29 25 22 17 -3 42 -6 55
-6z m-77 -102 c68 -211 70 -193 -20 -208 -39 -7 -73 -10 -75 -7 -3 3 -2 54 3
113 l8 109 29 5 c25 4 27 7 14 17 -14 12 -14 73 1 73 4 0 22 -46 40 -102z"/>
<path d="M1624 4352 c-33 -32 -98 -187 -131 -311 -34 -129 -43 -215 -28 -284
17 -79 32 -112 99 -202 28 -38 64 -90 80 -114 15 -24 31 -39 35 -35 18 21 90
257 121 396 9 43 18 104 19 137 4 112 -66 344 -118 389 -46 40 -58 44 -77 24z
m110 -174 c16 -31 24 -58 20 -73 -3 -12 -1 -26 5 -29 25 -16 4 -290 -28 -371
-11 -28 -41 -157 -41 -177 0 -39 -21 -24 -48 34 -49 103 -59 130 -75 193 -17
63 -22 181 -8 189 4 3 9 35 9 71 2 93 35 197 78 240 15 15 18 15 39 -5 13 -12
35 -44 49 -72z"/>
<path d="M1606 1942 c-4 -7 15 -13 51 -17 57 -7 181 -55 216 -83 9 -8 17 -11
17 -5 0 13 -76 67 -123 86 -49 21 -152 33 -161 19z"/>
<path d="M2130 1165 c0 -8 7 -15 15 -15 8 0 15 7 15 15 0 8 -7 15 -15 15 -8 0
-15 -7 -15 -15z"/>
<path d="M538 2003 c6 -2 18 -2 25 0 6 3 1 5 -13 5 -14 0 -19 -2 -12 -5z"/>
<path d="M488 983 c6 -2 18 -2 25 0 6 3 1 5 -13 5 -14 0 -19 -2 -12 -5z"/>
<path d="M255 820 c4 -6 71 -10 173 -9 118 1 154 4 122 10 -67 11 -302 11
-295 -1z"/>
<path d="M743 543 c26 -2 67 -2 90 0 23 2 2 3 -48 3 -49 0 -68 -1 -42 -3z"/>
<path d="M3640 920 c0 -5 4 -10 9 -10 6 0 13 5 16 10 3 6 -1 10 -9 10 -9 0
-16 -4 -16 -10z"/>
<path d="M1870 221 c0 -6 5 -13 10 -16 6 -3 10 1 10 9 0 9 -4 16 -10 16 -5 0
-10 -4 -10 -9z"/>
<path d="M1925 210 c3 -5 8 -10 11 -10 2 0 4 5 4 10 0 6 -5 10 -11 10 -5 0 -7
-4 -4 -10z"/>
<path d="M1886 175 c4 -8 8 -15 10 -15 2 0 4 7 4 15 0 8 -4 15 -10 15 -5 0 -7
-7 -4 -15z"/>
</g>
</svg>
